<?xml version="1.0" encoding="UTF-8" standalone="no"?>
<!DOCTYPE svg PUBLIC "-//W3C//DTD SVG 1.1//EN" "http://www.w3.org/Graphics/SVG/1.1/DTD/svg11.dtd">
<svg width="100%" height="100%" viewBox="0 0 461 408" version="1.1" xmlns="http://www.w3.org/2000/svg" xmlns:xlink="http://www.w3.org/1999/xlink" xml:space="preserve" xmlns:serif="http://www.serif.com/" style="fill-rule:evenodd;clip-rule:evenodd;stroke-linejoin:round;stroke-miterlimit:2;">
    <g transform="matrix(1,0,0,1,-36.984,-39.1153)">
        <g transform="matrix(0.637804,0,0,1,18.5529,0)">
            <path d="M699.721,301.829C699.77,300.812 699.812,299.8 699.845,298.792C702.846,207.081 639.005,197.149 535.149,208.461C532.596,208.739 532.359,209.555 531.425,209.908C429.517,248.505 384.757,235.415 258.665,143.842C87.88,19.808 -52.175,324.724 154.052,445.595L599.292,445.595C604.988,442.743 610.306,439.911 615.236,437.147C664.666,409.431 696.977,358.432 699.721,301.829Z" style="fill:rgb(207,219,247);fill-rule:nonzero;"/>
        </g>
        <path d="M477.515,150.239C481.835,138.997 476.061,128.293 463.473,129.409C450.707,130.54 417.616,132.231 389.454,101.994C330.976,39.207 293.179,124.013 354.048,168.737C395.713,199.35 460.232,195.213 477.515,150.239Z" style="fill:rgb(207,219,247);fill-rule:nonzero;"/>
        <g transform="matrix(1,0,0,1,-262.513,120.28)">
            <path d="M700.986,149.806C700.914,167.371 686.646,181.552 669.119,181.48C651.592,181.409 637.441,167.111 637.513,149.545C637.585,131.98 651.853,117.799 669.38,117.871C686.907,117.943 701.058,132.241 700.986,149.806Z" style="fill:rgb(146,180,251);fill-rule:nonzero;"/>
        </g>
        <g transform="matrix(1,0,0,1,-262.513,120.28)">
            <path d="M675.771,138.126C669.408,134.534 661.292,136.793 657.7,143.156C654.108,149.518 656.367,157.633 662.729,161.225C669.092,164.817 677.206,162.559 680.799,156.196C684.391,149.834 682.133,141.718 675.771,138.126Z" style="fill:white;fill-rule:nonzero;"/>
        </g>
        <g transform="matrix(1,0,0,1,-262.513,120.28)">
            <path d="M672.954,140.982L663.742,157.456C663.47,157.943 663.644,158.558 664.13,158.83C664.617,159.103 665.232,158.929 665.504,158.442L674.716,141.968C674.988,141.481 674.814,140.866 674.328,140.594C673.841,140.322 673.226,140.496 672.954,140.982Z" style="fill:rgb(146,180,251);fill-rule:nonzero;"/>
        </g>
        <path d="M56.909,401.611C56.909,404.715 54.394,407.229 51.291,407.229C48.188,407.229 45.672,404.715 45.672,401.611C45.672,398.509 48.188,395.993 51.291,395.993C54.394,395.993 56.909,398.509 56.909,401.611Z" style="fill:rgb(253,255,255);fill-rule:nonzero;"/>
        <path d="M84.807,229.471L38.909,229.471C37.846,229.471 36.984,230.333 36.984,231.396L36.984,231.621C36.984,232.684 37.846,233.546 38.909,233.546L84.807,233.546C85.87,233.546 86.732,232.684 86.732,231.621L86.732,231.396C86.732,230.333 85.87,229.471 84.807,229.471Z" style="fill:rgb(146,180,251);fill-rule:nonzero;"/>
        <g transform="matrix(1,0,0,1,-262.513,120.28)">
            <path d="M707.732,229.728L696.126,227.656L684.52,225.584C680.808,224.922 677.261,227.395 676.598,231.107C675.936,234.82 678.407,238.367 682.12,239.03L693.726,241.102L705.332,243.173C709.045,243.836 712.592,241.364 713.255,237.651C713.918,233.938 711.445,230.391 707.732,229.728Z" style="fill:rgb(207,219,247);fill-rule:nonzero;"/>
            <clipPath id="_clip1">
                <path d="M707.732,229.728L696.126,227.656L684.52,225.584C680.808,224.922 677.261,227.395 676.598,231.107C675.936,234.82 678.407,238.367 682.12,239.03L693.726,241.102L705.332,243.173C709.045,243.836 712.592,241.364 713.255,237.651C713.918,233.938 711.445,230.391 707.732,229.728Z" clip-rule="nonzero"/>
            </clipPath>
            <g clip-path="url(#_clip1)">
                <path d="M684.52,225.584C680.808,224.922 677.261,227.395 676.598,231.107C675.936,234.82 678.407,238.367 682.12,239.03L693.726,241.102L696.126,227.656L684.52,225.584Z" style="fill:rgb(146,180,251);fill-rule:nonzero;"/>
                <path d="M706.54,243.281C706.142,243.281 705.738,243.246 705.332,243.173L693.726,241.102L694.465,236.961L712.28,240.141C711.044,242.065 708.888,243.281 706.54,243.281Z" style="fill:rgb(194,205,231);fill-rule:nonzero;"/>
                <path d="M693.726,241.102L687.434,239.978L682.12,239.03C678.813,238.44 676.491,235.561 676.49,232.316C676.49,231.917 676.525,231.513 676.598,231.107C676.871,229.574 677.637,228.252 678.703,227.275C678.625,229.911 679.62,233.326 684.564,235.193L694.465,236.961L693.726,241.102Z" style="fill:rgb(137,168,235);fill-rule:nonzero;"/>
            </g>
        </g>
        <g transform="matrix(1,0,0,1,-262.513,120.28)">
            <path d="M707.409,234.304C707.338,234.304 707.265,234.297 707.191,234.284L695.321,232.165L695.755,229.735L707.625,231.854C708.296,231.974 708.743,232.615 708.623,233.286C708.517,233.884 707.996,234.304 707.409,234.304Z" style="fill:rgb(223,231,250);fill-rule:nonzero;"/>
        </g>
        <g transform="matrix(1,0,0,1,-262.513,120.28)">
            <path d="M695.321,232.165L689.815,231.182C689.144,231.063 688.698,230.421 688.817,229.751C688.924,229.152 689.444,228.733 690.031,228.733C690.103,228.733 690.177,228.739 690.25,228.752L695.755,229.735L695.321,232.165Z" style="fill:rgb(183,206,252);fill-rule:nonzero;"/>
        </g>
        <path d="M45.779,358.236L57.171,361.269L68.563,364.304C72.208,365.274 75.949,363.106 76.919,359.462C77.89,355.817 75.722,352.076 72.078,351.106L60.686,348.072L49.293,345.038C45.649,344.067 41.908,346.235 40.937,349.88C39.967,353.524 42.134,357.266 45.779,358.236Z" style="fill:rgb(207,219,247);fill-rule:nonzero;"/>
        <clipPath id="_clip2">
            <path d="M45.779,358.236L57.171,361.269L68.563,364.304C72.208,365.274 75.949,363.106 76.919,359.462C77.89,355.817 75.722,352.076 72.078,351.106L60.686,348.072L49.293,345.038C45.649,344.067 41.908,346.235 40.937,349.88C39.967,353.524 42.134,357.266 45.779,358.236Z" clip-rule="nonzero"/>
        </clipPath>
        <g clip-path="url(#_clip2)">
            <path d="M68.563,364.304C72.208,365.274 75.949,363.106 76.919,359.462C77.89,355.817 75.722,352.076 72.078,351.106L60.686,348.072L57.171,361.269L68.563,364.304Z" style="fill:rgb(146,180,251);fill-rule:nonzero;"/>
            <path d="M77.151,357.694C77.148,354.677 75.131,351.919 72.078,351.106L60.686,348.072L59.603,352.137L42.116,347.48C43.396,345.813 45.4,344.806 47.532,344.806C48.113,344.806 48.705,344.881 49.293,345.038L60.686,348.072L72.078,351.106C75.131,351.919 77.148,354.677 77.151,357.694Z" style="fill:rgb(194,205,231);fill-rule:nonzero;"/>
            <path d="M74.501,363.105C74.799,360.484 74.092,356.999 69.322,354.725L59.603,352.137L60.686,348.072L72.078,351.106C75.131,351.919 77.148,354.677 77.151,357.694C77.152,358.278 77.077,358.871 76.919,359.462C76.519,360.967 75.645,362.221 74.501,363.105Z" style="fill:rgb(137,168,235);fill-rule:nonzero;"/>
        </g>
        <path d="M57.714,359.23L46.063,356.127C45.404,355.951 45.012,355.275 45.188,354.616C45.335,354.064 45.834,353.699 46.38,353.699C46.485,353.699 46.592,353.713 46.698,353.741L58.349,356.844L57.714,359.23Z" style="fill:rgb(223,231,250);fill-rule:nonzero;"/>
        <path d="M63.436,360.711C63.331,360.711 63.225,360.697 63.119,360.669L57.714,359.23L58.349,356.844L63.754,358.283C64.413,358.459 64.805,359.135 64.629,359.794C64.482,360.346 63.982,360.711 63.436,360.711Z" style="fill:rgb(183,206,252);fill-rule:nonzero;"/>
        <path d="M318.795,40.989L307.751,50.04L296.707,59.092C293.174,61.987 292.657,67.199 295.552,70.732C298.448,74.265 303.66,74.782 307.193,71.886L329.281,53.784C332.814,50.889 333.331,45.677 330.435,42.144C327.54,38.611 322.328,38.094 318.795,40.989Z" style="fill:rgb(207,219,247);fill-rule:nonzero;"/>
        <clipPath id="_clip3">
            <path d="M318.795,40.989L307.751,50.04L296.707,59.092C293.174,61.987 292.657,67.199 295.552,70.732C298.448,74.265 303.66,74.782 307.193,71.886L329.281,53.784C332.814,50.889 333.331,45.677 330.435,42.144C327.54,38.611 322.328,38.094 318.795,40.989Z" clip-rule="nonzero"/>
        </clipPath>
        <g clip-path="url(#_clip3)">
            <path d="M296.707,59.092C293.174,61.987 292.657,67.199 295.552,70.732C298.448,74.265 303.66,74.782 307.193,71.886L318.237,62.835L307.751,50.04L296.707,59.092Z" style="fill:rgb(146,180,251);fill-rule:nonzero;"/>
            <path d="M318.237,62.835L315.007,58.895L331.96,45.001C332.194,45.78 332.31,46.584 332.31,47.386C332.308,49.778 331.275,52.15 329.281,53.784L318.237,62.835Z" style="fill:rgb(194,205,231);fill-rule:nonzero;"/>
            <path d="M301.954,73.76C299.561,73.76 297.187,72.727 295.552,70.732C294.356,69.273 293.743,67.527 293.683,65.776C295.134,67.095 297.174,68.272 299.831,68.272C301.502,68.272 303.418,67.806 305.585,66.616L315.007,58.895L318.237,62.835L307.193,71.886C305.655,73.147 303.799,73.76 301.954,73.76Z" style="fill:rgb(137,168,235);fill-rule:nonzero;"/>
        </g>
        <path d="M311.267,54.331L309.372,52.019L320.668,42.762C320.945,42.534 321.281,42.423 321.615,42.423C322.047,42.423 322.476,42.61 322.771,42.97C323.295,43.609 323.202,44.551 322.563,45.074L311.267,54.331Z" style="fill:rgb(223,231,250);fill-rule:nonzero;"/>
        <path d="M445.854,145.235L497.293,145.235L497.293,143.215L445.854,143.215" style="fill:rgb(207,219,247);fill-rule:nonzero;"/>
        <path d="M238.478,83.558C238.478,83.558 238.478,63.728 200.345,76.885C167.306,88.284 177.212,112.094 164.682,150.521C149.183,198.051 186.451,214.334 204.188,210.015L240.224,208.55L249.863,163.461L238.478,83.558Z" style="fill-rule:nonzero;"/>
        <path d="M231.587,87.819C231.587,87.819 238.621,75.608 249.774,81.234C261.195,86.996 263.654,98.966 261.815,116.984C259.519,139.474 296.436,178.032 246.746,207.28L215.576,208.55L231.587,87.819Z" style="fill-rule:nonzero;"/>
        <path d="M212.299,217.7C212.299,217.7 226.056,248.09 322.723,296.73L349.193,267.394L254.562,203.128L212.299,217.7Z" style="fill:white;fill-rule:nonzero;"/>
        <path d="M349.389,259.876L364.926,188.232L350.382,186.988L330.339,243.133C336.493,248.985 342.841,254.574 349.389,259.876Z" style="fill:rgb(175,111,59);fill-rule:nonzero;"/>
        <path d="M348.879,184.951L349.028,181.16C349.228,176.066 350.623,171.091 353.099,166.635L357.458,158.791C358.494,156.926 360.958,156.441 362.624,157.772C364.03,158.896 364.613,160.763 364.095,162.488L361.358,171.612L385.203,149.042C386.343,147.907 388.221,148.03 389.202,149.305L389.86,150.16C390.636,151.166 390.594,152.58 389.761,153.539L374.267,169.296L394.568,153.658C395.775,152.603 397.634,152.843 398.534,154.169L398.979,154.826C399.736,155.942 399.543,157.447 398.528,158.334L381.359,173.168L396.866,164.771C398.34,163.913 400.229,164.638 400.751,166.262L400.855,166.589C401.213,167.703 400.805,168.919 399.848,169.59L384.361,179.463L393.493,176.222C395.236,175.308 397.336,176.529 397.402,178.496C397.434,179.432 396.973,180.315 396.188,180.825L356.836,205.205L351.617,196.103C349.675,192.716 348.726,188.852 348.879,184.951Z" style="fill:rgb(175,111,59);fill-rule:nonzero;"/>
        <path d="M360.941,171.878L360.957,171.905C361.15,172.221 362.876,175.2 362.875,179.702C362.875,181.653 362.553,183.891 361.642,186.337C361.547,186.593 361.677,186.878 361.933,186.973C362.189,187.068 362.474,186.938 362.57,186.682C363.523,184.122 363.865,181.762 363.864,179.702C363.862,174.626 361.804,171.394 361.775,171.346C361.628,171.115 361.322,171.048 361.092,171.195C360.861,171.342 360.794,171.648 360.941,171.878Z" style="fill-rule:nonzero;"/>
        <path d="M315.855,268.673L338.194,202.373L366.896,213.305L353.457,284.485C350.435,296.547 337.414,303.118 325.916,298.385C315.565,294.124 310.584,282.315 315.855,268.673Z" style="fill:white;fill-rule:nonzero;"/>
        <path d="M321.521,248.838L316.364,264.71C316.244,265.08 316.446,265.477 316.815,265.597C317.185,265.717 317.581,265.514 317.702,265.145L322.859,249.272C322.979,248.903 322.777,248.506 322.407,248.386C322.038,248.266 321.641,248.468 321.521,248.838Z" style="fill:rgb(207,219,247);fill-rule:nonzero;"/>
        <path d="M198.204,195.82C198.204,195.82 174.661,204.582 166.9,210.682C159.141,216.782 157.524,230.232 163.732,248.856C169.94,267.48 191.641,331.111 191.641,331.111L163.79,445.595L295.03,445.595L277.285,332.755L279.161,299.555C279.161,299.555 291.415,265.378 279.665,237.993C263.406,200.099 234.333,191.65 234.333,191.65L198.204,195.82Z" style="fill:white;fill-rule:nonzero;"/>
        <path d="M234.333,191.65C234.333,191.65 244.452,212.07 251.633,253.025C251.633,253.025 219.086,225.917 198.204,195.82L213.153,191.65L234.333,191.65Z" style="fill:rgb(175,111,59);fill-rule:nonzero;"/>
        <clipPath id="_clip4">
            <path d="M234.333,191.65C234.333,191.65 244.452,212.07 251.633,253.025C251.633,253.025 219.086,225.917 198.204,195.82L213.153,191.65L234.333,191.65Z" clip-rule="nonzero"/>
        </clipPath>
        <g clip-path="url(#_clip4)">
            <path d="M189.721,220.171C189.721,220.171 243.059,207.094 269.408,213.591L271.886,263.585L235.808,273.027L208.209,228.965" style="fill:rgb(144,178,249);fill-rule:nonzero;"/>
        </g>
        <path d="M250.981,253.289L262.891,282.76L265.941,445.608C265.949,445.996 266.269,446.305 266.658,446.298C267.046,446.291 267.355,445.97 267.348,445.582L264.295,282.604L264.244,282.354L252.285,252.762C252.139,252.402 251.729,252.228 251.369,252.373C251.009,252.519 250.835,252.929 250.981,253.289Z" style="fill:rgb(207,219,247);fill-rule:nonzero;"/>
        <path d="M197.144,196.618L185.72,218.546C185.616,218.744 185.613,218.979 185.711,219.179C185.809,219.38 185.996,219.522 186.215,219.563L204.251,222.898L201.306,236.739C201.248,237.009 201.353,237.286 201.574,237.45L263.173,283.182C263.382,283.337 263.662,283.364 263.896,283.251C264.131,283.138 264.285,282.903 264.295,282.643L266.295,227.291C266.303,227.07 266.207,226.859 266.036,226.72L255.375,218.049L259.265,211.307C259.428,211.025 259.377,210.67 259.142,210.446L243.401,195.451C243.119,195.183 242.674,195.194 242.406,195.475C242.138,195.757 242.149,196.202 242.43,196.47L257.771,211.083L253.857,217.865C253.684,218.165 253.754,218.544 254.023,218.762L264.876,227.59L262.937,281.255L202.775,236.59L205.777,222.484C205.816,222.298 205.779,222.106 205.674,221.947C205.568,221.789 205.404,221.681 205.217,221.646L187.406,218.353L198.391,197.268C198.571,196.924 198.437,196.499 198.092,196.32C197.748,196.14 197.323,196.274 197.144,196.618Z" style="fill:rgb(207,219,247);fill-rule:nonzero;"/>
        <path d="M285.447,276.221C285.447,276.216 285.452,275.954 285.452,275.467C285.452,273.17 285.341,265.873 284.067,257.108C282.791,248.342 280.363,238.109 275.67,229.913C275.477,229.576 275.047,229.46 274.71,229.653C274.373,229.846 274.256,230.276 274.449,230.613C279.002,238.549 281.419,248.644 282.676,257.31C283.935,265.977 284.046,273.216 284.045,275.467C284.045,275.944 284.04,276.193 284.041,276.194C284.033,276.582 284.342,276.903 284.73,276.91C285.118,276.918 285.439,276.609 285.447,276.221Z" style="fill:rgb(207,219,247);fill-rule:nonzero;"/>
        <path d="M196.437,253.353L195.501,246.616C195.457,246.296 195.435,245.98 195.435,245.667C195.435,242.314 197.91,239.383 201.328,238.909C201.646,238.865 201.962,238.844 202.274,238.844C205.346,238.844 208.101,240.922 208.884,243.976L209.646,243.781L208.869,243.902L210.054,251.475L211.607,251.232L210.416,243.622L210.407,243.585C209.44,239.828 206.058,237.272 202.274,237.272C201.89,237.272 201.501,237.298 201.112,237.352C196.907,237.938 193.864,241.535 193.863,245.667C193.863,246.052 193.89,246.441 193.944,246.832L194.88,253.569L196.437,253.353Z" style="fill-rule:nonzero;"/>
        <path d="M201.97,237.897C201.97,237.896 201.888,237.633 201.741,237.138C200.713,233.68 196.596,218.998 196.603,207.693C196.6,204.018 197.044,200.71 198.101,198.32C198.629,197.123 199.301,196.16 200.129,195.457C200.959,194.755 201.945,194.297 203.186,194.123L202.97,192.566C201.457,192.774 200.159,193.366 199.111,194.259C197.536,195.6 196.529,197.562 195.904,199.865C195.279,202.172 195.032,204.844 195.031,207.693C195.033,214.357 196.395,222.003 197.752,228.005C199.109,234.004 200.465,238.351 200.469,238.365L201.97,237.897Z" style="fill-rule:nonzero;"/>
        <path d="M210.136,251.469C210.136,251.469 210.157,251.594 210.194,251.835C210.456,253.528 211.508,260.84 211.507,268.513C211.51,273.484 211.059,278.611 209.712,282.403C209.042,284.299 208.151,285.85 207.033,286.9C205.909,287.949 204.583,288.532 202.855,288.538C200.606,288.543 197.632,287.484 193.855,284.859L193.053,286.014C196.963,288.724 200.164,289.939 202.855,289.944C204.917,289.95 206.655,289.195 207.997,287.924C210.013,286.016 211.205,283.045 211.937,279.625C212.664,276.201 212.913,272.305 212.914,268.513C212.913,259.602 211.527,251.26 211.524,251.238L210.136,251.469Z" style="fill:rgb(207,219,247);fill-rule:nonzero;"/>
        <path d="M191.165,285.314C191.336,286.546 192.473,287.405 193.704,287.234C194.936,287.063 195.795,285.927 195.624,284.695C195.453,283.464 194.316,282.604 193.084,282.775C191.854,282.946 190.994,284.083 191.165,285.314Z" style="fill-rule:nonzero;"/>
        <path d="M194.975,253.537C194.979,253.559 195.947,262.222 198.459,270.933C199.718,275.29 201.357,279.659 203.496,282.997C204.567,284.665 205.765,286.08 207.133,287.096C208.497,288.112 210.05,288.722 211.744,288.72C213.323,288.72 214.992,288.196 216.729,287.095C218.469,285.993 220.29,284.315 222.225,281.962L221.138,281.069C219.271,283.341 217.545,284.914 215.977,285.906C214.406,286.899 213.008,287.313 211.744,287.313C210.389,287.311 209.153,286.842 207.971,285.967C205.904,284.441 204.079,281.64 202.577,278.285C200.317,273.255 198.756,267.013 197.772,262.043C197.279,259.557 196.929,257.388 196.702,255.842C196.589,255.069 196.507,254.452 196.452,254.029C196.398,253.606 196.373,253.381 196.373,253.381L194.975,253.537Z" style="fill:rgb(207,219,247);fill-rule:nonzero;"/>
        <path d="M223.852,280.774C224.022,282.006 223.163,283.143 221.932,283.313C220.7,283.484 219.563,282.625 219.392,281.394C219.221,280.162 220.081,279.025 221.312,278.854C222.543,278.684 223.68,279.543 223.852,280.774Z" style="fill-rule:nonzero;"/>
        <path d="M260.678,237.205C260.672,237.18 258.564,225.95 254.211,214.46C252.032,208.714 249.297,202.901 245.943,198.368C244.265,196.102 242.43,194.153 240.413,192.702C238.398,191.252 236.19,190.3 233.808,190.074L233.659,191.638C235.715,191.835 237.653,192.654 239.496,193.978C242.72,196.291 245.611,200.166 248.079,204.69C251.788,211.474 254.562,219.691 256.397,226.199C257.315,229.454 258,232.282 258.454,234.294C258.682,235.301 258.851,236.103 258.965,236.653C259.078,237.203 259.133,237.495 259.133,237.496L260.678,237.205Z" style="fill-rule:nonzero;"/>
        <path d="M254.766,244.925C255.183,249.178 258.14,252.369 261.375,252.053C264.608,251.736 266.892,248.032 266.476,243.779C266.06,239.526 263.101,236.335 259.868,236.651C256.634,236.968 254.35,240.672 254.766,244.925Z" style="fill-rule:nonzero;"/>
        <path d="M258.592,244.55C258.861,247.284 260.446,249.366 262.137,249.2C263.826,249.035 264.979,246.685 264.711,243.952C264.444,241.218 262.857,239.136 261.168,239.301C259.479,239.467 258.325,241.817 258.592,244.55Z" style="fill:rgb(207,219,247);fill-rule:nonzero;"/>
        <path d="M169.742,208.734C169.742,208.734 134.721,220.068 110.106,340.799L147.372,354.023L186.31,252.242L169.742,208.734Z" style="fill:white;fill-rule:nonzero;"/>
        <path d="M174.126,288.486L183.138,263.512C183.269,263.147 183.08,262.744 182.715,262.612C182.349,262.48 181.946,262.669 181.815,263.035L172.803,288.008C172.671,288.374 172.86,288.777 173.226,288.909C173.591,289.04 173.994,288.851 174.126,288.486Z" style="fill:rgb(207,219,247);fill-rule:nonzero;"/>
        <path d="M167.417,327.125L234.821,327.424L239.534,343.401L172.516,352.651L167.417,327.125Z" style="fill:rgb(175,111,59);fill-rule:nonzero;"/>
        <path d="M133.832,319.339L206.545,323.06L203.824,357.604L130.672,362.839C117.343,362.782 108.125,353.98 110.106,340.799C111.891,328.934 121.951,317.655 133.832,319.339Z" style="fill:white;fill-rule:nonzero;"/>
        <path d="M140.007,320.408L205.787,323.725L205.524,327.07C205.493,327.457 205.782,327.796 206.169,327.826C206.557,327.857 206.895,327.567 206.926,327.18L207.246,323.115C207.261,322.925 207.199,322.739 207.073,322.595C206.947,322.452 206.771,322.367 206.58,322.357L140.077,319.004C139.689,318.984 139.359,319.283 139.34,319.671C139.32,320.059 139.619,320.389 140.007,320.408Z" style="fill:rgb(207,219,247);fill-rule:nonzero;"/>
        <path d="M203.795,349.017L203.169,356.965L178.894,359.479C178.508,359.519 178.227,359.865 178.267,360.251C178.307,360.637 178.652,360.918 179.039,360.878L203.897,358.304C204.234,358.269 204.499,357.998 204.525,357.66L205.197,349.127C205.228,348.74 204.938,348.402 204.551,348.371C204.164,348.341 203.826,348.63 203.795,349.017Z" style="fill:rgb(207,219,247);fill-rule:nonzero;"/>
        <path d="M260.342,278.558L233.77,372.849C232.787,376.337 235.408,379.8 239.033,379.8L300.787,379.8C303.191,379.8 305.313,378.23 306.016,375.932L334.875,281.642C335.951,278.126 333.322,274.572 329.646,274.572L265.606,274.572C263.157,274.572 261.006,276.2 260.342,278.558Z" style="fill-rule:nonzero;"/>
        <path d="M290.602,271.547C290.602,271.547 294.994,265.259 305.274,266.031C316.723,266.892 314.856,277.066 314.856,277.066L290.602,271.547Z" style="fill-rule:nonzero;"/>
        <path d="M270.59,274.869L248.431,353.5C247.611,356.409 249.797,359.297 252.82,359.297L304.317,359.297C306.322,359.297 308.091,357.988 308.678,356.071L332.743,277.441C333.64,274.51 331.448,271.547 328.383,271.547L274.979,271.547C272.937,271.547 271.144,272.904 270.59,274.869Z" style="fill-rule:nonzero;"/>
        <path d="M263.853,278.558L237.28,372.849C236.296,376.337 238.918,379.8 242.543,379.8L304.297,379.8C306.701,379.8 308.822,378.23 309.526,375.932L338.385,281.642C339.46,278.126 336.832,274.572 333.156,274.572L269.116,274.572C266.667,274.572 264.517,276.2 263.853,278.558Z" style="fill:rgb(234,182,91);fill-rule:nonzero;"/>
        <path d="M228.325,330.27C228.325,330.27 230.779,320.313 251.351,310.351L248.319,321.395C248.319,321.395 258.161,319.93 271.739,313.516C273.021,312.91 274.553,313.438 275.232,314.683C275.969,316.035 275.431,317.729 274.049,318.408L269.29,320.745L277.278,318.748C278.624,318.411 279.997,319.192 280.396,320.521C280.771,321.771 280.166,323.096 278.979,323.636C277.474,324.319 274.843,325.343 270.284,326.792L270.285,326.792C270.285,326.792 274.102,326.351 278.01,325.647C279.411,325.396 280.766,326.238 281.026,327.637C281.24,328.784 280.643,329.926 279.573,330.393C277.495,331.3 273.719,332.821 268.835,334.298C272.44,334.087 276.433,333.38 276.989,334.712C277.546,336.044 277.45,337.362 267.309,340.243C257.167,343.124 243.485,347.734 234.612,345.545L223.416,340.914L223.416,328.541L228.325,330.27Z" style="fill:rgb(175,111,59);fill-rule:nonzero;"/>
        <path d="M262.327,131.106C263.534,136.296 259.926,141.998 254.269,143.842C248.612,145.687 243.048,142.975 241.842,137.786C240.636,132.596 244.243,126.894 249.9,125.049C255.557,123.205 261.121,125.917 262.327,131.106Z" style="fill:rgb(150,87,38);fill-rule:nonzero;"/>
        <path d="M256.112,115.209C256.411,136.255 241.981,153.5 219.318,153.821C196.655,154.143 178.041,137.342 177.743,116.295C177.444,95.25 195.575,77.928 218.238,77.607C240.901,77.286 255.813,94.163 256.112,115.209Z" style="fill-rule:nonzero;"/>
        <path d="M212.299,146.536L206.545,197.259L234.074,200.457L231.704,152.496L212.299,146.536Z" style="fill:rgb(175,111,59);fill-rule:nonzero;"/>
        <path d="M233.399,185.91L209.611,157.046L231.815,156.265L233.399,185.91Z" style="fill:rgb(150,87,38);fill-rule:nonzero;"/>
        <path d="M213.459,88.993C220.106,87.107 227.173,86.576 233.944,87.819C243.114,89.505 254.9,94.838 256.514,110.971C259.202,137.86 254.74,158.082 241.018,164.441C230.482,169.323 224.036,167.665 211.8,161.049C207.247,158.587 199.713,149.509 199.552,144.134L194.893,130.89C194.893,130.89 181.698,98.003 213.459,88.993Z" style="fill:rgb(175,111,59);fill-rule:nonzero;"/>
        <path d="M240.474,141.416L243.772,138.744C243.938,138.609 243.971,138.368 243.845,138.194L240.03,132.898C239.9,132.717 239.647,132.676 239.466,132.806C239.285,132.937 239.244,133.189 239.374,133.371L242.966,138.357L239.965,140.788C239.792,140.929 239.765,141.183 239.906,141.357C240.046,141.53 240.301,141.557 240.474,141.416Z" style="fill-rule:nonzero;"/>
        <path d="M231.932,128.778C231.932,128.778 227.612,118.054 213.176,126.292C213.176,126.292 220.574,135.994 231.932,128.778Z" style="fill:white;fill-rule:nonzero;"/>
        <clipPath id="_clip5">
            <path d="M231.932,128.778C231.932,128.778 227.612,118.054 213.176,126.292C213.176,126.292 220.574,135.994 231.932,128.778Z" clip-rule="nonzero"/>
        </clipPath>
        <g clip-path="url(#_clip5)">
            <path d="M228.424,126.281C228.807,129.155 226.857,131.786 224.069,132.157C221.281,132.528 218.711,130.499 218.329,127.624C217.946,124.749 219.896,122.118 222.684,121.747C225.472,121.376 228.042,123.406 228.424,126.281Z" style="fill-rule:nonzero;"/>
        </g>
        <path d="M212.966,126.051C215.773,123.59 219.533,122.497 223.215,122.47C225.043,122.486 226.98,122.694 228.69,123.651C230.394,124.591 231.764,126.151 232.258,128.192C232.344,128.546 232.127,128.903 231.772,128.989C231.418,129.075 231.062,128.857 230.975,128.503L230.97,128.481L230.955,128.406C230.653,126.917 229.554,125.444 228.133,124.626C226.701,123.748 224.948,123.467 223.197,123.399C219.718,123.33 216.093,124.279 213.386,126.534C213.251,126.649 213.05,126.634 212.935,126.5C212.821,126.368 212.838,126.166 212.966,126.051Z" style="fill-rule:nonzero;"/>
        <path d="M244.192,128.536C244.192,128.536 248.369,117.525 256.449,124.984C256.449,124.984 251.943,135.43 244.192,128.536Z" style="fill:white;fill-rule:nonzero;"/>
        <clipPath id="_clip6">
            <path d="M244.192,128.536C244.192,128.536 248.369,117.525 256.449,124.984C256.449,124.984 251.943,135.43 244.192,128.536Z" clip-rule="nonzero"/>
        </clipPath>
        <g clip-path="url(#_clip6)">
            <path d="M247.232,125.823C246.853,128.327 248.152,130.6 250.135,130.901C252.118,131.201 254.033,129.415 254.412,126.911C254.792,124.407 253.492,122.133 251.509,121.833C249.527,121.532 247.612,123.318 247.232,125.823Z" style="fill-rule:nonzero;"/>
        </g>
        <path d="M256.226,125.138C255.047,123.396 252.838,122.441 250.9,122.976L250.847,122.988C248.096,123.446 245.939,125.729 244.976,128.241L244.961,128.279C244.851,128.567 244.529,128.711 244.242,128.6C243.954,128.49 243.81,128.168 243.92,127.881L243.927,127.863C245.125,125.031 247.602,122.63 250.725,122.204L250.673,122.215C253.061,121.648 255.471,122.915 256.67,124.83C256.758,124.951 256.73,125.12 256.608,125.206C256.489,125.292 256.316,125.253 256.226,125.138Z" style="fill-rule:nonzero;"/>
        <path d="M247.284,113.043C247.284,113.043 246.488,115.948 249.585,116.475C251.937,116.875 254.7,117.086 256.021,117.721C256.771,118.081 257.638,117.758 258.074,116.96C258.427,116.316 258.431,115.493 258.066,114.864C257.325,113.588 254.481,111.616 251.624,111.084C247.956,110.4 247.284,113.043 247.284,113.043Z" style="fill-rule:nonzero;"/>
        <path d="M230.427,110.756C230.427,110.756 231.502,113.699 227.082,114.321C223.726,114.793 218.452,116.242 216.559,116.925C215.484,117.313 214.257,117.006 213.652,116.205C213.163,115.557 213.174,114.717 213.706,114.065C214.785,112.743 220.211,109.495 224.289,108.874C229.525,108.077 230.427,110.756 230.427,110.756Z" style="fill-rule:nonzero;"/>
        <path d="M243.059,145.538L227.128,145.152C227.128,145.152 227.144,151.635 234.696,151.794C242.78,151.966 243.059,145.538 243.059,145.538Z" style="fill:white;fill-rule:nonzero;"/>
        <path d="M223.879,140.574C223.775,140.574 223.67,140.572 223.565,140.57C216.547,140.4 210.996,134.573 211.166,127.555C211.288,122.483 214.365,118.178 218.71,116.244C219.849,115.912 221.219,115.545 222.605,115.213C223.02,115.172 223.441,115.151 223.867,115.151C223.971,115.151 224.076,115.152 224.181,115.155C231.199,115.325 236.751,121.152 236.581,128.17C236.413,135.084 230.757,140.574 223.879,140.574ZM220.072,130.92C221.152,131.245 222.343,131.447 223.637,131.447C224.544,131.447 225.501,131.347 226.506,131.121C228.082,130.765 229.773,130.096 231.565,129.006C231.582,129.007 231.599,129.008 231.617,129.008C231.668,129.008 231.72,129.002 231.772,128.989C232.127,128.903 232.344,128.546 232.258,128.192C231.764,126.151 230.394,124.591 228.69,123.651C226.98,122.694 225.043,122.486 223.215,122.47C219.533,122.497 215.773,123.59 212.966,126.051C212.838,126.166 212.821,126.368 212.935,126.5C212.998,126.574 213.087,126.611 213.177,126.611C213.249,126.611 213.32,126.588 213.38,126.539C214.06,127.332 216.425,129.823 220.072,130.92ZM216.465,124.658C216.699,124.557 216.935,124.462 217.174,124.373C216.941,124.463 216.705,124.557 216.465,124.658Z" style="fill:rgb(199,154,118);fill-rule:nonzero;"/>
        <path d="M226.506,131.121C227.891,130.02 228.68,128.205 228.424,126.281C228.337,125.622 228.135,125.008 227.841,124.457C227.94,124.511 228.037,124.567 228.133,124.626C229.554,125.444 230.653,126.917 230.955,128.406L230.97,128.481L230.975,128.503C231.045,128.788 231.288,128.984 231.565,129.006C229.773,130.096 228.082,130.765 226.506,131.121ZM220.072,130.92C216.425,129.823 214.06,127.332 213.38,126.539C213.382,126.538 213.384,126.536 213.386,126.534C214.318,125.758 215.359,125.136 216.465,124.658C216.705,124.557 216.941,124.463 217.174,124.373C217.868,124.117 218.582,123.913 219.308,123.76C218.526,124.821 218.138,126.192 218.329,127.624C218.506,128.955 219.152,130.106 220.072,130.92Z" style="fill:white;fill-rule:nonzero;"/>
        <path d="M223.637,131.447C222.343,131.447 221.152,131.245 220.072,130.92C219.152,130.106 218.506,128.955 218.329,127.624C218.138,126.192 218.526,124.821 219.308,123.76C220.472,123.513 221.665,123.395 222.845,123.395C222.963,123.395 223.08,123.397 223.197,123.399C224.831,123.463 226.466,123.711 227.841,124.457C228.135,125.008 228.337,125.622 228.424,126.281C228.68,128.205 227.891,130.02 226.506,131.121C225.501,131.347 224.544,131.447 223.637,131.447Z" style="fill:rgb(77,77,77);fill-rule:nonzero;"/>
        <path d="M231.617,129.008C231.599,129.008 231.582,129.007 231.565,129.006C231.288,128.984 231.045,128.788 230.975,128.503L230.97,128.481L230.955,128.406C230.653,126.917 229.554,125.444 228.133,124.626C228.037,124.567 227.94,124.511 227.841,124.457C226.466,123.711 224.831,123.463 223.197,123.399C223.08,123.397 222.963,123.395 222.845,123.395C221.665,123.395 220.472,123.513 219.308,123.76C218.582,123.913 217.868,124.117 217.174,124.373C216.935,124.462 216.699,124.557 216.465,124.658C215.359,125.136 214.318,125.758 213.386,126.534C213.384,126.536 213.382,126.538 213.38,126.539C213.32,126.588 213.249,126.611 213.177,126.611C213.087,126.611 212.998,126.574 212.935,126.5C212.821,126.368 212.838,126.166 212.966,126.051C215.773,123.59 219.533,122.497 223.215,122.47C225.043,122.486 226.98,122.694 228.69,123.651C230.394,124.591 231.764,126.151 232.258,128.192C232.344,128.546 232.127,128.903 231.772,128.989C231.72,129.002 231.668,129.008 231.617,129.008Z" style="fill:rgb(77,77,77);fill-rule:nonzero;"/>
        <path d="M218.71,116.244C219.922,115.704 221.232,115.349 222.605,115.213C221.219,115.545 219.849,115.912 218.71,116.244Z" style="fill:rgb(77,77,77);fill-rule:nonzero;"/>
        <path d="M264.965,134.874C263.04,128.842 261.564,123.262 261.721,118.377C264.658,120.752 266.529,124.626 266.434,128.952C266.387,131.105 265.859,133.12 264.965,134.874Z" style="fill:rgb(237,240,249);fill-rule:nonzero;"/>
        <path d="M259.803,140.167C262.012,137.614 263.061,134.265 262.327,131.106C261.678,128.313 259.767,126.238 257.258,125.204C257.262,122.816 257.191,120.35 257.049,117.812C257.461,117.696 257.833,117.4 258.074,116.96C258.159,116.806 258.222,116.642 258.267,116.472C259.525,116.891 260.689,117.542 261.721,118.377C261.564,123.262 263.04,128.842 264.965,134.874C263.788,137.184 261.979,139.042 259.803,140.167Z" style="fill:rgb(77,77,77);fill-rule:nonzero;"/>
        <path d="M255.861,141.316C256.793,136.488 257.249,131.082 257.258,125.204C259.767,126.238 261.678,128.313 262.327,131.106C263.061,134.265 262.012,137.614 259.803,140.167C258.588,140.794 257.258,141.194 255.861,141.316Z" style="fill:rgb(182,138,104);fill-rule:nonzero;"/>
        <path d="M254.949,141.355C254.855,141.355 254.76,141.354 254.666,141.351C248.319,141.182 243.3,135.354 243.453,128.337C243.571,122.953 246.699,118.432 251.014,116.695C252.973,116.975 254.961,117.212 256.021,117.721C256.226,117.82 256.443,117.867 256.655,117.867C256.789,117.867 256.922,117.848 257.049,117.812C257.191,120.35 257.262,122.816 257.258,125.204C257.249,131.082 256.793,136.488 255.861,141.316C255.56,141.342 255.256,141.355 254.949,141.355ZM244.28,128.614C246.168,130.267 247.861,130.889 249.343,130.889C249.537,130.889 249.727,130.879 249.913,130.858C251.427,130.692 252.7,129.882 253.707,128.914C255.139,127.539 256.036,125.844 256.337,125.225C256.376,125.243 256.419,125.252 256.461,125.252C256.513,125.252 256.564,125.238 256.608,125.206C256.73,125.12 256.758,124.951 256.67,124.83C255.667,123.228 253.815,122.079 251.839,122.079C251.469,122.079 251.095,122.119 250.721,122.204C247.6,122.632 245.124,125.032 243.927,127.863L243.92,127.881C243.81,128.168 243.954,128.49 244.242,128.6C244.254,128.605 244.267,128.61 244.28,128.614Z" style="fill:rgb(199,154,118);fill-rule:nonzero;"/>
        <path d="M249.343,130.889C247.861,130.889 246.168,130.267 244.28,128.614C244.333,128.63 244.387,128.637 244.441,128.637C244.665,128.637 244.876,128.501 244.961,128.279L244.976,128.241C245.51,126.846 246.413,125.523 247.58,124.542C247.42,124.94 247.301,125.37 247.232,125.823C246.867,128.232 248.056,130.428 249.913,130.858C249.727,130.879 249.537,130.889 249.343,130.889ZM253.707,128.914C254.052,128.334 254.299,127.654 254.412,126.911C254.635,125.439 254.278,124.047 253.544,123.088C254.606,123.451 255.575,124.174 256.226,125.138C256.256,125.176 256.295,125.205 256.337,125.225C256.036,125.844 255.139,127.539 253.707,128.914Z" style="fill:white;fill-rule:nonzero;"/>
        <path d="M249.913,130.858C248.056,130.428 246.867,128.232 247.232,125.823C247.301,125.37 247.42,124.94 247.58,124.542C248.516,123.757 249.623,123.192 250.847,122.988L250.9,122.976C251.265,122.875 251.638,122.828 252.013,122.828C252.529,122.828 253.047,122.918 253.544,123.088C254.278,124.047 254.635,125.439 254.412,126.911C254.299,127.654 254.052,128.334 253.707,128.914C252.7,129.882 251.427,130.692 249.913,130.858Z" style="fill:rgb(77,77,77);fill-rule:nonzero;"/>
        <path d="M244.441,128.637C244.387,128.637 244.333,128.63 244.28,128.614C244.267,128.61 244.254,128.605 244.242,128.6C243.954,128.49 243.81,128.168 243.92,127.881L243.927,127.863C245.124,125.032 247.6,122.632 250.721,122.204C251.095,122.119 251.469,122.079 251.839,122.079C253.815,122.079 255.667,123.228 256.67,124.83C256.758,124.951 256.73,125.12 256.608,125.206C256.564,125.238 256.513,125.252 256.461,125.252C256.419,125.252 256.376,125.243 256.337,125.225C256.295,125.205 256.256,125.176 256.226,125.138C255.575,124.174 254.606,123.451 253.544,123.088C253.047,122.918 252.529,122.828 252.013,122.828C251.638,122.828 251.265,122.875 250.9,122.976L250.847,122.988C249.623,123.192 248.516,123.757 247.58,124.542C246.413,125.523 245.51,126.846 244.976,128.241L244.961,128.279C244.876,128.501 244.665,128.637 244.441,128.637Z" style="fill:rgb(77,77,77);fill-rule:nonzero;"/>
        <path d="M256.655,117.867C256.443,117.867 256.226,117.82 256.021,117.721C254.961,117.212 252.973,116.975 251.014,116.695C252.24,116.202 253.562,115.933 254.938,115.933C255.032,115.933 255.127,115.934 255.222,115.936C256.278,115.965 257.301,116.15 258.267,116.472C258.222,116.642 258.159,116.806 258.074,116.96C257.833,117.4 257.461,117.696 257.049,117.812C256.922,117.848 256.789,117.867 256.655,117.867Z" style="fill:rgb(77,77,77);fill-rule:nonzero;"/>
        <path d="M211.166,127.555L210.661,127.542C210.658,127.651 210.657,127.76 210.657,127.868C210.657,135.019 216.365,140.9 223.553,141.075C223.662,141.077 223.771,141.078 223.879,141.078C231.03,141.078 236.911,135.37 237.085,128.182C237.088,128.073 237.089,127.965 237.089,127.856C237.089,120.705 231.381,114.825 224.193,114.65C224.084,114.647 223.975,114.646 223.867,114.646C216.716,114.646 210.835,120.354 210.661,127.542L211.166,127.555L211.67,127.567C211.83,120.928 217.264,115.655 223.867,115.656C223.967,115.656 224.068,115.657 224.168,115.659C230.807,115.82 236.08,121.253 236.079,127.856C236.079,127.957 236.078,128.057 236.076,128.158C235.916,134.796 230.482,140.069 223.879,140.069C223.779,140.069 223.678,140.068 223.578,140.065C216.939,139.905 211.666,134.472 211.667,127.868C211.667,127.768 211.668,127.668 211.67,127.567L211.166,127.555Z" style="fill:rgb(234,182,91);fill-rule:nonzero;"/>
        <path d="M243.958,128.347L242.948,128.325C242.946,128.434 242.945,128.542 242.945,128.649C242.945,132.21 244.229,135.462 246.335,137.851C248.438,140.239 251.375,141.769 254.652,141.856C254.751,141.859 254.85,141.86 254.949,141.86C258.209,141.861 261.178,140.418 263.337,138.089C265.498,135.76 266.86,132.541 266.939,128.963C266.941,128.854 266.942,128.746 266.942,128.638C266.942,125.077 265.658,121.826 263.553,119.437C261.449,117.049 258.512,115.519 255.235,115.432C255.136,115.429 255.037,115.428 254.938,115.428C251.678,115.427 248.709,116.87 246.55,119.199C244.39,121.528 243.027,124.747 242.948,128.325L243.958,128.347C244.031,125.013 245.301,122.03 247.291,119.885C249.282,117.741 251.98,116.438 254.938,116.438C255.028,116.438 255.118,116.439 255.208,116.441C258.183,116.521 260.853,117.904 262.795,120.105C264.735,122.305 265.933,125.321 265.933,128.638C265.933,128.738 265.932,128.839 265.929,128.941C265.857,132.275 264.586,135.258 262.597,137.403C260.605,139.547 257.907,140.85 254.949,140.851C254.859,140.851 254.769,140.849 254.679,140.847C251.704,140.767 249.034,139.384 247.092,137.183C245.152,134.982 243.954,131.966 243.954,128.649C243.954,128.549 243.956,128.448 243.958,128.347Z" style="fill:rgb(234,182,91);fill-rule:nonzero;"/>
        <path d="M243.737,127.919C243.691,127.891 242.134,126.832 239.847,126.827C238.795,126.827 237.589,127.059 236.343,127.724L236.818,128.615C237.913,128.032 238.941,127.838 239.847,127.837C240.83,127.837 241.67,128.07 242.262,128.304C242.557,128.421 242.79,128.537 242.947,128.622L243.121,128.723L243.162,128.749L243.17,128.754L243.737,127.919Z" style="fill:rgb(234,182,91);fill-rule:nonzero;"/>
        <path d="M210.93,126.787L201.362,132.178L201.858,133.058L211.426,127.666" style="fill:rgb(234,182,91);fill-rule:nonzero;"/>
        <path d="M186.326,124.447C186.326,124.447 236.303,109.313 230.542,80.771C230.542,80.771 212.382,75.93 197.867,92.124C183.351,108.318 186.326,124.447 186.326,124.447Z" style="fill-rule:nonzero;"/>
        <path d="M201.569,115.714L201.569,141.776L189.516,122.46L201.569,115.714Z" style="fill-rule:nonzero;"/>
        <path d="M184.02,135.409C182.813,140.599 186.421,146.301 192.078,148.145C197.735,149.99 203.299,147.278 204.505,142.088C205.711,136.899 202.104,131.197 196.447,129.353C190.79,127.508 185.226,130.22 184.02,135.409Z" style="fill:rgb(175,111,59);fill-rule:nonzero;"/>
        <path d="M189.627,136.36L189.642,136.357C189.739,136.336 190.242,136.238 190.975,136.238C191.933,136.238 193.276,136.405 194.638,137.113C196,137.824 197.395,139.067 198.48,141.293C198.596,141.532 198.884,141.631 199.122,141.515C199.361,141.399 199.46,141.111 199.344,140.873C198.181,138.478 196.62,137.058 195.081,136.261C193.543,135.462 192.042,135.277 190.975,135.277C190.039,135.277 189.433,135.419 189.406,135.425C189.147,135.486 188.987,135.745 189.049,136.003C189.11,136.261 189.368,136.421 189.627,136.36Z" style="fill-rule:nonzero;"/>
        <path d="M230.186,91.227C230.186,91.227 239.226,88.176 243.883,93.91C250.123,101.591 253.055,109.024 260.312,110.971C260.312,110.971 262.709,84.864 233.399,82.505L220.31,87.146L230.186,91.227Z" style="fill-rule:nonzero;"/>
        <path d="M358.31,435.947C354.106,435.947 350.698,432.539 350.698,428.335L350.698,375.049L365.922,375.049L365.922,428.335C365.922,432.539 362.514,435.947 358.31,435.947Z" style="fill:white;fill-rule:nonzero;"/>
        <path d="M367.045,376.42L349.575,376.42C348.142,376.42 346.98,375.258 346.98,373.825C346.98,372.393 348.142,371.23 349.575,371.23L367.045,371.23C368.479,371.23 369.64,372.393 369.64,373.825C369.64,375.258 368.479,376.42 367.045,376.42Z" style="fill:rgb(146,180,251);fill-rule:nonzero;"/>
        <path d="M358.31,432.473C355.966,432.473 354.066,430.572 354.066,428.228L354.066,383.839L362.555,383.839L362.555,428.228C362.555,430.572 360.654,432.473 358.31,432.473Z" style="fill:rgb(234,182,91);fill-rule:nonzero;"/>
        <path d="M391.856,435.947C387.652,435.947 384.244,432.539 384.244,428.335L384.244,375.049L399.469,375.049L399.469,428.335C399.469,432.539 396.061,435.947 391.856,435.947Z" style="fill:white;fill-rule:nonzero;"/>
        <path d="M400.592,376.42L383.121,376.42C381.688,376.42 380.526,375.258 380.526,373.825C380.526,372.393 381.688,371.23 383.121,371.23L400.592,371.23C402.024,371.23 403.187,372.393 403.187,373.825C403.187,375.258 402.024,376.42 400.592,376.42Z" style="fill:rgb(146,180,251);fill-rule:nonzero;"/>
        <path d="M391.856,432.473C389.513,432.473 387.612,430.572 387.612,428.228L387.612,397.667L396.101,397.667L396.101,428.228C396.101,430.572 394.2,432.473 391.856,432.473Z" style="fill:rgb(234,182,91);fill-rule:nonzero;"/>
        <path d="M425.402,435.947C421.198,435.947 417.79,432.539 417.79,428.335L417.79,375.049L433.015,375.049L433.015,428.335C433.015,432.539 429.606,435.947 425.402,435.947Z" style="fill:white;fill-rule:nonzero;"/>
        <path d="M434.138,376.42L416.667,376.42C415.234,376.42 414.072,375.258 414.072,373.825C414.072,372.393 415.234,371.23 416.667,371.23L434.138,371.23C435.57,371.23 436.732,372.393 436.732,373.825C436.732,375.258 435.57,376.42 434.138,376.42Z" style="fill:rgb(146,180,251);fill-rule:nonzero;"/>
        <path d="M425.402,432.473C423.059,432.473 421.158,430.572 421.158,428.228L421.158,390.183L429.646,390.183L429.646,428.228C429.646,430.572 427.746,432.473 425.402,432.473Z" style="fill:rgb(234,182,91);fill-rule:nonzero;"/>
        <rect x="338.076" y="405.901" width="109.797" height="7.075" style="fill:rgb(62,107,190);fill-rule:nonzero;"/>
        <path d="M342.216,407.924L342.216,443.719L344.235,443.719L344.235,407.924" style="fill:rgb(62,107,190);fill-rule:nonzero;"/>
        <g transform="matrix(0.629834,0,0,0.629834,21.8161,164.402)">
            <path d="M58.936,447.058L703.622,447.058L703.622,444.132L58.936,444.132" style="fill:rgb(146,180,251);fill-rule:nonzero;"/>
        </g>
    </g>
</svg>
